<svg width="27" height="28" viewBox="0 0 27 28" fill="none" xmlns="http://www.w3.org/2000/svg">
<path d="M13.6 27.5882C11.7854 27.5882 10.0494 27.2349 8.39181 26.5282C6.73426 25.8216 5.30789 24.8707 4.11271 23.6755C2.91753 22.4803 1.96661 21.054 1.25997 19.3964C0.553333 17.7389 0.200012 16.0028 0.200012 14.1882C0.200012 12.3736 0.553333 10.6376 1.25997 8.98C1.96661 7.32245 2.91753 5.89609 4.11271 4.7009C5.30789 3.50572 6.73426 2.55481 8.39181 1.84817C10.0494 1.14153 11.7854 0.788208 13.6 0.788208C15.4146 0.788208 17.1507 1.14153 18.8082 1.84817C20.4658 2.55481 21.8921 3.50572 23.0873 4.7009C24.2825 5.89609 25.2334 7.32245 25.9401 8.98C26.6467 10.6376 27 12.3736 27 14.1882C27 16.0028 26.6467 17.7389 25.9401 19.3964C25.2334 21.054 24.2825 22.4803 23.0873 23.6755C21.8921 24.8707 20.4658 25.8216 18.8082 26.5282C17.1507 27.2349 15.4146 27.5882 13.6 27.5882ZM20.3 9.16321C20.3 8.70956 20.1386 8.31698 19.8158 7.98547C19.493 7.65396 19.0961 7.48821 18.625 7.48821H8.57501C8.12137 7.48821 7.72879 7.65396 7.39728 7.98547C7.06577 8.31698 6.90001 8.70956 6.90001 9.16321V10.8382H9.88361C10.8956 9.72154 12.1344 9.16321 13.6 9.16321C15.0656 9.16321 16.3044 9.72154 17.3164 10.8382H20.3V9.16321ZM10.25 14.1882C10.25 15.1129 10.5772 15.9025 11.2315 16.5568C11.8858 17.2111 12.6753 17.5382 13.6 17.5382C14.5248 17.5382 15.3143 17.2111 15.9686 16.5568C16.6229 15.9025 16.95 15.1129 16.95 14.1882C16.95 13.2635 16.6229 12.4739 15.9686 11.8197C15.3143 11.1654 14.5248 10.8382 13.6 10.8382C12.6753 10.8382 11.8858 11.1654 11.2315 11.8197C10.5772 12.4739 10.25 13.2635 10.25 14.1882ZM20.3 12.5132H18.3109C18.5203 13.089 18.625 13.6473 18.625 14.1882C18.625 15.584 18.1365 16.7705 17.1594 17.7476C16.1823 18.7247 14.9958 19.2132 13.6 19.2132C12.2042 19.2132 11.0177 18.7247 10.0406 17.7476C9.06355 16.7705 8.57501 15.584 8.57501 14.1882C8.57501 13.6473 8.6797 13.089 8.88907 12.5132H6.90001V19.2132C6.90001 19.6843 7.06141 20.0812 7.38419 20.404C7.70698 20.7268 8.10392 20.8882 8.57501 20.8882H18.625C19.0961 20.8882 19.493 20.7268 19.8158 20.404C20.1386 20.0812 20.3 19.6843 20.3 19.2132V12.5132Z" />
</svg>
