
<svg width="447" height="164" viewBox="0 0 447 164" fill="red" xmlns="http://www.w3.org/2000/svg">
<path d="M446.338 3.3137C446.338 5.15464 444.869 6.62739 443.034 6.62739C441.199 6.62739 439.731 5.15464 439.731 3.3137C439.731 1.47275 441.199 0 443.034 0C444.686 0 446.338 1.47275 446.338 3.3137Z" />
<path d="M409.632 3.3137C409.632 5.15464 408.164 6.62739 406.329 6.62739C404.494 6.62739 403.025 5.15464 403.025 3.3137C403.025 1.47275 404.494 0 406.329 0C408.164 0 409.632 1.47275 409.632 3.3137Z" />
<path d="M372.927 3.3137C372.927 5.15464 371.459 6.62739 369.623 6.62739C367.788 6.62739 366.32 5.15464 366.32 3.3137C366.32 1.47275 367.788 0 369.623 0C371.459 0 372.927 1.47275 372.927 3.3137Z" />
<path d="M336.405 3.3137C336.405 5.15464 334.937 6.62739 333.102 6.62739C331.266 6.62739 329.798 5.15464 329.798 3.3137C329.798 1.47275 331.266 0 333.102 0C334.937 0 336.405 1.47275 336.405 3.3137Z" />
<path d="M299.7 3.3137C299.7 5.15464 298.231 6.62739 296.396 6.62739C294.561 6.62739 293.093 5.15464 293.093 3.3137C293.093 1.47275 294.561 0 296.396 0C298.231 0 299.7 1.47275 299.7 3.3137Z" />
<path d="M263.178 3.3137C263.178 5.15464 261.71 6.62739 259.874 6.62739C258.039 6.62739 256.571 5.15464 256.571 3.3137C256.571 1.47275 258.039 0 259.874 0C261.526 0 263.178 1.47275 263.178 3.3137Z" />
<path d="M226.472 3.3137C226.472 5.15464 225.004 6.62739 223.169 6.62739C221.334 6.62739 219.865 5.15464 219.865 3.3137C219.865 1.47275 221.334 0 223.169 0C225.004 0 226.472 1.47275 226.472 3.3137Z" />
<path d="M189.767 3.3137C189.767 5.15464 188.299 6.62739 186.463 6.62739C184.628 6.62739 183.16 5.15464 183.16 3.3137C183.16 1.47275 184.628 0 186.463 0C188.299 0 189.767 1.47275 189.767 3.3137Z" />
<path d="M153.245 3.3137C153.245 5.15464 151.777 6.62739 149.942 6.62739C148.106 6.62739 146.638 5.15464 146.638 3.3137C146.638 1.47275 148.106 0 149.942 0C151.777 0 153.245 1.47275 153.245 3.3137Z" />
<path d="M116.54 3.3137C116.54 5.15464 115.071 6.62739 113.236 6.62739C111.401 6.62739 109.933 5.15464 109.933 3.3137C109.933 1.47275 111.401 0 113.236 0C115.071 0 116.54 1.47275 116.54 3.3137Z" />
<path d="M80.0178 3.3137C80.0178 5.15464 78.5496 6.62739 76.7143 6.62739C74.879 6.62739 73.4108 5.15464 73.4108 3.3137C73.4108 1.47275 74.879 0 76.7143 0C78.5496 0 80.0178 1.47275 80.0178 3.3137Z" />
<path d="M43.3124 3.3137C43.3124 5.15464 41.8442 6.62739 40.009 6.62739C38.1737 6.62739 36.7054 5.15464 36.7054 3.3137C36.7054 1.47275 38.1737 0 40.009 0C41.8442 0 43.3124 1.47275 43.3124 3.3137Z" />
<path d="M6.60693 3.3137C6.60693 5.15464 5.13875 6.62739 3.30349 6.62739C1.46824 6.62739 0 5.15464 0 3.3137C0 1.47275 1.46824 0 3.30349 0C5.13875 0 6.60693 1.47275 6.60693 3.3137Z" />
<path d="M446.338 34.6097C446.338 36.4507 444.869 37.9234 443.034 37.9234C441.199 37.9234 439.731 36.4507 439.731 34.6097C439.731 32.7688 441.199 31.296 443.034 31.296C444.686 31.296 446.338 32.7688 446.338 34.6097Z" />
<path d="M409.632 34.6097C409.632 36.4507 408.164 37.9234 406.329 37.9234C404.494 37.9234 403.025 36.4507 403.025 34.6097C403.025 32.7688 404.494 31.296 406.329 31.296C408.164 31.296 409.632 32.7688 409.632 34.6097Z" />
<path d="M372.927 34.6097C372.927 36.4507 371.459 37.9234 369.623 37.9234C367.788 37.9234 366.32 36.4507 366.32 34.6097C366.32 32.7688 367.788 31.296 369.623 31.296C371.459 31.296 372.927 32.7688 372.927 34.6097Z" />
<path d="M336.405 34.6097C336.405 36.4507 334.937 37.9234 333.102 37.9234C331.266 37.9234 329.798 36.4507 329.798 34.6097C329.798 32.7688 331.266 31.296 333.102 31.296C334.937 31.296 336.405 32.7688 336.405 34.6097Z" />
<path d="M299.7 34.6097C299.7 36.4507 298.231 37.9234 296.396 37.9234C294.561 37.9234 293.093 36.4507 293.093 34.6097C293.093 32.7688 294.561 31.296 296.396 31.296C298.231 31.296 299.7 32.7688 299.7 34.6097Z" />
<path d="M263.178 34.6097C263.178 36.4507 261.71 37.9234 259.874 37.9234C258.039 37.9234 256.571 36.4507 256.571 34.6097C256.571 32.7688 258.039 31.296 259.874 31.296C261.526 31.296 263.178 32.7688 263.178 34.6097Z" />
<path d="M226.472 34.6097C226.472 36.4507 225.004 37.9234 223.169 37.9234C221.334 37.9234 219.865 36.4507 219.865 34.6097C219.865 32.7688 221.334 31.296 223.169 31.296C225.004 31.296 226.472 32.7688 226.472 34.6097Z" />
<path d="M189.767 34.6097C189.767 36.4507 188.299 37.9234 186.463 37.9234C184.628 37.9234 183.16 36.4507 183.16 34.6097C183.16 32.7688 184.628 31.296 186.463 31.296C188.299 31.296 189.767 32.7688 189.767 34.6097Z" />
<path d="M153.245 34.6097C153.245 36.4507 151.777 37.9234 149.942 37.9234C148.106 37.9234 146.638 36.4507 146.638 34.6097C146.638 32.7688 148.106 31.296 149.942 31.296C151.777 31.296 153.245 32.7688 153.245 34.6097Z" />
<path d="M116.54 34.6097C116.54 36.4507 115.071 37.9234 113.236 37.9234C111.401 37.9234 109.933 36.4507 109.933 34.6097C109.933 32.7688 111.401 31.296 113.236 31.296C115.071 31.296 116.54 32.7688 116.54 34.6097Z" />
<path d="M80.0178 34.6097C80.0178 36.4507 78.5496 37.9234 76.7143 37.9234C74.879 37.9234 73.4108 36.4507 73.4108 34.6097C73.4108 32.7688 74.879 31.296 76.7143 31.296C78.5496 31.296 80.0178 32.7688 80.0178 34.6097Z" />
<path d="M43.3124 34.6097C43.3124 36.4507 41.8442 37.9234 40.009 37.9234C38.1737 37.9234 36.7054 36.4507 36.7054 34.6097C36.7054 32.7688 38.1737 31.296 40.009 31.296C41.8442 31.296 43.3124 32.7688 43.3124 34.6097Z" />
<path d="M6.60693 34.6097C6.60693 36.4507 5.13875 37.9234 3.30349 37.9234C1.46824 37.9234 0 36.4507 0 34.6097C0 32.7688 1.46824 31.296 3.30349 31.296C5.13875 31.296 6.60693 32.7688 6.60693 34.6097Z" />
<path d="M446.338 65.9057C446.338 67.7467 444.869 69.2194 443.034 69.2194C441.199 69.2194 439.731 67.7467 439.731 65.9057C439.731 64.0648 441.199 62.592 443.034 62.592C444.686 62.592 446.338 64.0648 446.338 65.9057Z" />
<path d="M409.632 65.9057C409.632 67.7467 408.164 69.2194 406.329 69.2194C404.494 69.2194 403.025 67.7467 403.025 65.9057C403.025 64.0648 404.494 62.592 406.329 62.592C408.164 62.592 409.632 64.0648 409.632 65.9057Z" />
<path d="M372.927 65.9057C372.927 67.7467 371.459 69.2194 369.623 69.2194C367.788 69.2194 366.32 67.7467 366.32 65.9057C366.32 64.0648 367.788 62.592 369.623 62.592C371.459 62.592 372.927 64.0648 372.927 65.9057Z" />
<path d="M336.405 65.9057C336.405 67.7467 334.937 69.2194 333.102 69.2194C331.266 69.2194 329.798 67.7467 329.798 65.9057C329.798 64.0648 331.266 62.592 333.102 62.592C334.937 62.592 336.405 64.0648 336.405 65.9057Z" />
<path d="M299.7 65.9057C299.7 67.7467 298.231 69.2194 296.396 69.2194C294.561 69.2194 293.093 67.7467 293.093 65.9057C293.093 64.0648 294.561 62.592 296.396 62.592C298.231 62.592 299.7 64.0648 299.7 65.9057Z" />
<path d="M263.178 65.9057C263.178 67.7467 261.71 69.2194 259.874 69.2194C258.039 69.2194 256.571 67.7467 256.571 65.9057C256.571 64.0648 258.039 62.592 259.874 62.592C261.526 62.592 263.178 64.0648 263.178 65.9057Z" />
<path d="M226.472 65.9057C226.472 67.7467 225.004 69.2194 223.169 69.2194C221.334 69.2194 219.865 67.7467 219.865 65.9057C219.865 64.0648 221.334 62.592 223.169 62.592C225.004 62.592 226.472 64.0648 226.472 65.9057Z" />
<path d="M189.767 65.9057C189.767 67.7467 188.299 69.2194 186.463 69.2194C184.628 69.2194 183.16 67.7467 183.16 65.9057C183.16 64.0648 184.628 62.592 186.463 62.592C188.299 62.592 189.767 64.0648 189.767 65.9057Z" />
<path d="M153.245 65.9057C153.245 67.7467 151.777 69.2194 149.942 69.2194C148.106 69.2194 146.638 67.7467 146.638 65.9057C146.638 64.0648 148.106 62.592 149.942 62.592C151.777 62.592 153.245 64.0648 153.245 65.9057Z" />
<path d="M116.54 65.9057C116.54 67.7467 115.071 69.2194 113.236 69.2194C111.401 69.2194 109.933 67.7467 109.933 65.9057C109.933 64.0648 111.401 62.592 113.236 62.592C115.071 62.592 116.54 64.0648 116.54 65.9057Z" />
<path d="M80.0178 65.9057C80.0178 67.7467 78.5496 69.2194 76.7143 69.2194C74.879 69.2194 73.4108 67.7467 73.4108 65.9057C73.4108 64.0648 74.879 62.592 76.7143 62.592C78.5496 62.592 80.0178 64.0648 80.0178 65.9057Z" />
<path d="M43.3124 65.9057C43.3124 67.7467 41.8442 69.2194 40.009 69.2194C38.1737 69.2194 36.7054 67.7467 36.7054 65.9057C36.7054 64.0648 38.1737 62.592 40.009 62.592C41.8442 62.592 43.3124 64.0648 43.3124 65.9057Z" />
<path d="M6.60693 65.9057C6.60693 67.7467 5.13875 69.2194 3.30349 69.2194C1.46824 69.2194 0 67.7467 0 65.9057C0 64.0648 1.46824 62.592 3.30349 62.592C5.13875 62.592 6.60693 64.0648 6.60693 65.9057Z" />
<path d="M446.338 97.2018C446.338 99.0427 444.869 100.515 443.034 100.515C441.199 100.515 439.731 99.0427 439.731 97.2018C439.731 95.3608 441.199 93.8881 443.034 93.8881C444.686 93.8881 446.338 95.3608 446.338 97.2018Z" />
<path d="M409.632 97.2018C409.632 99.0427 408.164 100.515 406.329 100.515C404.494 100.515 403.025 99.0427 403.025 97.2018C403.025 95.3608 404.494 93.8881 406.329 93.8881C408.164 93.8881 409.632 95.3608 409.632 97.2018Z" />
<path d="M372.927 97.2018C372.927 99.0427 371.459 100.515 369.623 100.515C367.788 100.515 366.32 99.0427 366.32 97.2018C366.32 95.3608 367.788 93.8881 369.623 93.8881C371.459 93.8881 372.927 95.3608 372.927 97.2018Z" />
<path d="M336.405 97.2018C336.405 99.0427 334.937 100.515 333.102 100.515C331.266 100.515 329.798 99.0427 329.798 97.2018C329.798 95.3608 331.266 93.8881 333.102 93.8881C334.937 93.8881 336.405 95.3608 336.405 97.2018Z" />
<path d="M299.7 97.2018C299.7 99.0427 298.231 100.515 296.396 100.515C294.561 100.515 293.093 99.0427 293.093 97.2018C293.093 95.3608 294.561 93.8881 296.396 93.8881C298.231 93.8881 299.7 95.3608 299.7 97.2018Z" />
<path d="M263.178 97.2018C263.178 99.0427 261.71 100.515 259.874 100.515C258.039 100.515 256.571 99.0427 256.571 97.2018C256.571 95.3608 258.039 93.8881 259.874 93.8881C261.526 93.8881 263.178 95.3608 263.178 97.2018Z" />
<path d="M226.472 97.2018C226.472 99.0427 225.004 100.515 223.169 100.515C221.334 100.515 219.865 99.0427 219.865 97.2018C219.865 95.3608 221.334 93.8881 223.169 93.8881C225.004 93.8881 226.472 95.3608 226.472 97.2018Z" />
<path d="M189.767 97.2018C189.767 99.0427 188.299 100.515 186.463 100.515C184.628 100.515 183.16 99.0427 183.16 97.2018C183.16 95.3608 184.628 93.8881 186.463 93.8881C188.299 93.8881 189.767 95.3608 189.767 97.2018Z" />
<path d="M153.245 97.2018C153.245 99.0427 151.777 100.515 149.942 100.515C148.106 100.515 146.638 99.0427 146.638 97.2018C146.638 95.3608 148.106 93.8881 149.942 93.8881C151.777 93.8881 153.245 95.3608 153.245 97.2018Z" />
<path d="M116.54 97.2018C116.54 99.0427 115.071 100.515 113.236 100.515C111.401 100.515 109.933 99.0427 109.933 97.2018C109.933 95.3608 111.401 93.8881 113.236 93.8881C115.071 93.8881 116.54 95.3608 116.54 97.2018Z" />
<path d="M80.0178 97.2018C80.0178 99.0427 78.5496 100.515 76.7143 100.515C74.879 100.515 73.4108 99.0427 73.4108 97.2018C73.4108 95.3608 74.879 93.8881 76.7143 93.8881C78.5496 93.8881 80.0178 95.3608 80.0178 97.2018Z" />
<path d="M43.3124 97.2018C43.3124 99.0427 41.8442 100.515 40.009 100.515C38.1737 100.515 36.7054 99.0427 36.7054 97.2018C36.7054 95.3608 38.1737 93.8881 40.009 93.8881C41.8442 93.8881 43.3124 95.3608 43.3124 97.2018Z" />
<path d="M6.60693 97.2018C6.60693 99.0427 5.13875 100.515 3.30349 100.515C1.46824 100.515 0 99.0427 0 97.2018C0 95.3608 1.46824 93.8881 3.30349 93.8881C5.13875 93.8881 6.60693 95.3608 6.60693 97.2018Z" />
<path d="M446.338 128.498C446.338 130.339 444.869 131.811 443.034 131.811C441.199 131.811 439.731 130.339 439.731 128.498C439.731 126.657 441.199 125.184 443.034 125.184C444.686 125.184 446.338 126.657 446.338 128.498Z" />
<path d="M409.632 128.498C409.632 130.339 408.164 131.811 406.329 131.811C404.494 131.811 403.025 130.339 403.025 128.498C403.025 126.657 404.494 125.184 406.329 125.184C408.164 125.184 409.632 126.657 409.632 128.498Z" />
<path d="M372.927 128.498C372.927 130.339 371.459 131.811 369.623 131.811C367.788 131.811 366.32 130.339 366.32 128.498C366.32 126.657 367.788 125.184 369.623 125.184C371.459 125.184 372.927 126.657 372.927 128.498Z" />
<path d="M333.102 131.811C331.277 131.811 329.798 130.328 329.798 128.498C329.798 126.668 331.277 125.184 333.102 125.184C334.926 125.184 336.405 126.668 336.405 128.498C336.405 130.328 334.926 131.811 333.102 131.811Z" />
<path d="M296.396 131.811C294.572 131.811 293.093 130.328 293.093 128.498C293.093 126.668 294.572 125.184 296.396 125.184C298.221 125.184 299.7 126.668 299.7 128.498C299.7 130.328 298.221 131.811 296.396 131.811Z" />
<path d="M259.691 131.811C257.866 131.811 256.387 130.328 256.387 128.498C256.387 126.668 257.866 125.184 259.691 125.184C261.515 125.184 262.994 126.668 262.994 128.498C262.994 130.328 261.515 131.811 259.691 131.811Z" />
<path d="M226.472 128.498C226.472 130.339 225.004 131.811 223.169 131.811C221.334 131.811 219.865 130.339 219.865 128.498C219.865 126.657 221.334 125.184 223.169 125.184C225.004 125.184 226.472 126.657 226.472 128.498Z" />
<path d="M189.767 128.498C189.767 130.339 188.299 131.811 186.463 131.811C184.628 131.811 183.16 130.339 183.16 128.498C183.16 126.657 184.628 125.184 186.463 125.184C188.299 125.184 189.767 126.657 189.767 128.498Z" />
<path d="M153.245 128.498C153.245 130.339 151.777 131.811 149.942 131.811C148.106 131.811 146.638 130.339 146.638 128.498C146.638 126.657 148.106 125.184 149.942 125.184C151.777 125.184 153.245 126.657 153.245 128.498Z" />
<path d="M116.54 128.498C116.54 130.339 115.071 131.811 113.236 131.811C111.401 131.811 109.933 130.339 109.933 128.498C109.933 126.657 111.401 125.184 113.236 125.184C115.071 125.184 116.54 126.657 116.54 128.498Z" />
<path d="M80.0178 128.498C80.0178 130.339 78.5496 131.811 76.7143 131.811C74.879 131.811 73.4108 130.339 73.4108 128.498C73.4108 126.657 74.879 125.184 76.7143 125.184C78.5496 125.184 80.0178 126.657 80.0178 128.498Z" />
<path d="M43.3124 128.498C43.3124 130.339 41.8442 131.811 40.009 131.811C38.1737 131.811 36.7054 130.339 36.7054 128.498C36.7054 126.657 38.1737 125.184 40.009 125.184C41.8442 125.184 43.3124 126.657 43.3124 128.498Z" />
<path d="M6.60693 128.498C6.60693 130.339 5.13875 131.811 3.30349 131.811C1.46824 131.811 0 130.339 0 128.498C0 126.657 1.46824 125.184 3.30349 125.184C5.13875 125.184 6.60693 126.657 6.60693 128.498Z" />
<path d="M446.338 159.794C446.338 161.635 444.869 163.107 443.034 163.107C441.199 163.107 439.731 161.635 439.731 159.794C439.731 157.953 441.199 156.48 443.034 156.48C444.686 156.48 446.338 157.953 446.338 159.794Z" />
<path d="M409.632 159.794C409.632 161.635 408.164 163.107 406.329 163.107C404.494 163.107 403.025 161.635 403.025 159.794C403.025 157.953 404.494 156.48 406.329 156.48C408.164 156.48 409.632 157.953 409.632 159.794Z" />
<path d="M372.927 159.794C372.927 161.635 371.459 163.107 369.623 163.107C367.788 163.107 366.32 161.635 366.32 159.794C366.32 157.953 367.788 156.48 369.623 156.48C371.459 156.48 372.927 157.953 372.927 159.794Z" />
<path d="M336.405 159.794C336.405 161.635 334.937 163.107 333.102 163.107C331.266 163.107 329.798 161.635 329.798 159.794C329.798 157.953 331.266 156.48 333.102 156.48C334.937 156.48 336.405 157.953 336.405 159.794Z" />
<path d="M299.7 159.794C299.7 161.635 298.231 163.107 296.396 163.107C294.561 163.107 293.093 161.635 293.093 159.794C293.093 157.953 294.561 156.48 296.396 156.48C298.231 156.48 299.7 157.953 299.7 159.794Z" />
<path d="M263.178 159.794C263.178 161.635 261.71 163.107 259.874 163.107C258.039 163.107 256.571 161.635 256.571 159.794C256.571 157.953 258.039 156.48 259.874 156.48C261.526 156.48 263.178 157.953 263.178 159.794Z" />
<path d="M226.472 159.794C226.472 161.635 225.004 163.107 223.169 163.107C221.334 163.107 219.865 161.635 219.865 159.794C219.865 157.953 221.334 156.48 223.169 156.48C225.004 156.48 226.472 157.953 226.472 159.794Z" />
<path d="M189.767 159.794C189.767 161.635 188.299 163.107 186.463 163.107C184.628 163.107 183.16 161.635 183.16 159.794C183.16 157.953 184.628 156.48 186.463 156.48C188.299 156.48 189.767 157.953 189.767 159.794Z" />
<path d="M153.245 159.794C153.245 161.635 151.777 163.107 149.942 163.107C148.106 163.107 146.638 161.635 146.638 159.794C146.638 157.953 148.106 156.48 149.942 156.48C151.777 156.48 153.245 157.953 153.245 159.794Z" />
<path d="M116.54 159.794C116.54 161.635 115.071 163.107 113.236 163.107C111.401 163.107 109.933 161.635 109.933 159.794C109.933 157.953 111.401 156.48 113.236 156.48C115.071 156.48 116.54 157.953 116.54 159.794Z" />
<path d="M80.0178 159.794C80.0178 161.635 78.5496 163.107 76.7143 163.107C74.879 163.107 73.4108 161.635 73.4108 159.794C73.4108 157.953 74.879 156.48 76.7143 156.48C78.5496 156.48 80.0178 157.953 80.0178 159.794Z" />
<path d="M43.3124 159.794C43.3124 161.635 41.8442 163.107 40.009 163.107C38.1737 163.107 36.7054 161.635 36.7054 159.794C36.7054 157.953 38.1737 156.48 40.009 156.48C41.8442 156.48 43.3124 157.953 43.3124 159.794Z" />
<path d="M6.60693 159.794C6.60693 161.635 5.13875 163.107 3.30349 163.107C1.46824 163.107 0 161.635 0 159.794C0 157.953 1.46824 156.48 3.30349 156.48C5.13875 156.48 6.60693 157.953 6.60693 159.794Z" />
</svg>
