<svg width="171" height="172" viewBox="0 0 171 172" fill="none" xmlns="http://www.w3.org/2000/svg">
<path d="M1.69236e-05 1.84094C1.69236e-05 0.736377 0.734125 0 1.83529 0H113.053C113.236 0 113.603 -2.8118e-06 113.787 0.184091C113.97 0.368186 114.154 0.368187 114.337 0.552281L169.946 56.3328C170.313 56.701 170.497 57.0692 170.497 57.6215V169.183C170.497 169.367 170.497 169.735 170.313 169.919C170.13 170.287 169.762 170.655 169.395 170.839C169.212 171.024 168.845 171.024 168.661 171.024H57.444C56.8934 171.024 56.5263 170.839 56.1593 170.471L0.55059 114.691C0.367063 114.507 0.183541 114.323 0.183541 114.138C1.41205e-05 113.954 1.69236e-05 113.586 1.69236e-05 113.402V1.84094ZM3.67056 111.561H111.217V3.68189H3.67056V111.561ZM82.5871 167.342L30.649 115.243H17.9857L69.9238 167.342H82.5871ZM96.5352 167.342L44.5971 115.243H31.9337L83.8718 167.342H96.5352ZM110.483 167.342L58.5451 115.243H45.8818L97.8199 167.342H110.483ZM124.431 167.342L72.4932 115.243H59.8298L111.768 167.342H124.431ZM138.379 167.342L86.4412 115.243H73.7779L125.716 167.342H138.379ZM152.327 167.342L100.389 115.243H87.7259L139.664 167.342H152.327ZM164.257 167.342L112.319 115.243H101.674L153.612 167.342H164.257ZM166.826 83.7629L114.888 31.6642V44.3667L166.826 96.6495V83.7629ZM166.826 97.9381L114.888 45.8395V58.542L166.826 110.641V97.9381ZM166.826 111.929L114.888 59.8306V72.5331L166.826 124.632V111.929ZM166.826 125.92L114.888 73.8218V86.5243L166.826 138.623V125.92ZM166.826 139.912L114.888 87.813V100.515L166.826 152.614V139.912ZM114.888 30.3756L166.826 82.4742V69.7717L114.888 17.673V30.3756ZM166.826 153.903L114.888 101.804V112.482L166.826 164.58V153.903ZM114.888 6.2592V16.3844L166.826 68.4831V58.3579L114.888 6.2592ZM58.1781 167.342H68.6391L16.701 115.243H6.23992L58.1781 167.342Z" fill="#29B8CE"/>
</svg>
