<svg width="144" height="397" viewBox="0 0 144 397" fill="none" xmlns="http://www.w3.org/2000/svg">
<path d="M140.667 0.185509C139.047 0.185509 137.75 1.48867 137.75 3.11764C137.75 4.7466 139.047 6.04977 140.667 6.04977C142.288 6.04977 143.584 4.7466 143.584 3.11764C143.584 1.48867 142.288 0.185509 140.667 0.185509Z" fill="#29B8CE" fill-opacity="0.6"/>
<path d="M140.667 32.7647C139.047 32.7647 137.75 34.0679 137.75 35.6968C137.75 37.3258 139.047 38.629 140.667 38.629C142.288 38.629 143.584 37.3258 143.584 35.6968C143.584 34.0679 142.288 32.7647 140.667 32.7647Z" fill="#29B8CE" fill-opacity="0.6"/>
<path d="M140.667 65.181C139.047 65.181 137.75 66.4841 137.75 68.1131C137.75 69.7421 139.047 71.0452 140.667 71.0452C142.288 71.0452 143.584 69.7421 143.584 68.1131C143.584 66.647 142.288 65.181 140.667 65.181Z" fill="#29B8CE" fill-opacity="0.6"/>
<path d="M140.667 97.7602C139.047 97.7602 137.75 99.0634 137.75 100.692C137.75 102.321 139.047 103.624 140.667 103.624C142.288 103.624 143.584 102.321 143.584 100.692C143.584 99.0634 142.288 97.7602 140.667 97.7602Z" fill="#29B8CE" fill-opacity="0.6"/>
<path d="M140.667 130.339C139.047 130.339 137.75 131.643 137.75 133.272C137.75 134.9 139.047 136.204 140.667 136.204C142.288 136.204 143.584 134.9 143.584 133.272C143.584 131.643 142.288 130.339 140.667 130.339Z" fill="#29B8CE" fill-opacity="0.6"/>
<path d="M140.667 162.756C139.047 162.756 137.75 164.059 137.75 165.688C137.75 167.317 139.047 168.62 140.667 168.62C142.288 168.62 143.584 167.317 143.584 165.688C143.584 164.059 142.288 162.756 140.667 162.756Z" fill="#29B8CE" fill-opacity="0.6"/>
<path d="M140.667 195.335C139.047 195.335 137.75 196.638 137.75 198.267C137.75 199.896 139.047 201.199 140.667 201.199C142.288 201.199 143.584 199.896 143.584 198.267C143.584 196.638 142.288 195.335 140.667 195.335Z" fill="#29B8CE" fill-opacity="0.6"/>
<path d="M140.667 227.751C139.047 227.751 137.75 229.054 137.75 230.683C137.75 232.312 139.047 233.615 140.667 233.615C142.288 233.615 143.584 232.312 143.584 230.683C143.584 229.054 142.288 227.751 140.667 227.751Z" fill="#29B8CE" fill-opacity="0.6"/>
<path d="M140.667 260.33C139.047 260.33 137.75 261.633 137.75 263.262C137.75 264.891 139.047 266.195 140.667 266.195C142.288 266.195 143.584 264.891 143.584 263.262C143.584 261.633 142.288 260.33 140.667 260.33Z" fill="#29B8CE" fill-opacity="0.6"/>
<path d="M140.667 292.909C139.047 292.909 137.75 294.213 137.75 295.842C137.75 297.471 139.047 298.774 140.667 298.774C142.288 298.774 143.584 297.471 143.584 295.842C143.584 294.213 142.288 292.909 140.667 292.909Z" fill="#29B8CE" fill-opacity="0.6"/>
<path d="M140.667 325.326C139.047 325.326 137.75 326.629 137.75 328.258C137.75 329.887 139.047 331.19 140.667 331.19C142.288 331.19 143.584 329.887 143.584 328.258C143.584 326.629 142.288 325.326 140.667 325.326Z" fill="#29B8CE" fill-opacity="0.6"/>
<path d="M140.667 357.905C139.047 357.905 137.75 359.208 137.75 360.837C137.75 362.466 139.047 363.769 140.667 363.769C142.288 363.769 143.584 362.466 143.584 360.837C143.584 359.208 142.288 357.905 140.667 357.905Z" fill="#29B8CE" fill-opacity="0.6"/>
<path d="M140.667 390.321C139.047 390.321 137.75 391.624 137.75 393.253C137.75 394.882 139.047 396.185 140.667 396.185C142.288 396.185 143.584 394.882 143.584 393.253C143.584 391.624 142.288 390.321 140.667 390.321Z" fill="#29B8CE" fill-opacity="0.6"/>
<path d="M113.117 0.185509C111.497 0.185509 110.2 1.48867 110.2 3.11764C110.2 4.7466 111.497 6.04977 113.117 6.04977C114.738 6.04977 116.034 4.7466 116.034 3.11764C116.034 1.48867 114.738 0.185509 113.117 0.185509Z" fill="#29B8CE" fill-opacity="0.6"/>
<path d="M113.117 32.7647C111.497 32.7647 110.2 34.0679 110.2 35.6968C110.2 37.3258 111.497 38.629 113.117 38.629C114.738 38.629 116.034 37.3258 116.034 35.6968C116.034 34.0679 114.738 32.7647 113.117 32.7647Z" fill="#29B8CE" fill-opacity="0.6"/>
<path d="M113.117 65.181C111.497 65.181 110.2 66.4841 110.2 68.1131C110.2 69.7421 111.497 71.0452 113.117 71.0452C114.738 71.0452 116.034 69.7421 116.034 68.1131C116.034 66.647 114.738 65.181 113.117 65.181Z" fill="#29B8CE" fill-opacity="0.6"/>
<path d="M113.117 97.7602C111.497 97.7602 110.2 99.0634 110.2 100.692C110.2 102.321 111.497 103.624 113.117 103.624C114.738 103.624 116.034 102.321 116.034 100.692C116.034 99.0634 114.738 97.7602 113.117 97.7602Z" fill="#29B8CE" fill-opacity="0.6"/>
<path d="M113.117 130.339C111.497 130.339 110.2 131.643 110.2 133.272C110.2 134.9 111.497 136.204 113.117 136.204C114.738 136.204 116.034 134.9 116.034 133.272C116.034 131.643 114.738 130.339 113.117 130.339Z" fill="#29B8CE" fill-opacity="0.6"/>
<path d="M113.117 162.756C111.497 162.756 110.2 164.059 110.2 165.688C110.2 167.317 111.497 168.62 113.117 168.62C114.738 168.62 116.034 167.317 116.034 165.688C116.034 164.059 114.738 162.756 113.117 162.756Z" fill="#29B8CE" fill-opacity="0.6"/>
<path d="M113.117 195.335C111.497 195.335 110.2 196.638 110.2 198.267C110.2 199.896 111.497 201.199 113.117 201.199C114.738 201.199 116.034 199.896 116.034 198.267C116.034 196.638 114.738 195.335 113.117 195.335Z" fill="#29B8CE" fill-opacity="0.6"/>
<path d="M113.117 227.751C111.497 227.751 110.2 229.054 110.2 230.683C110.2 232.312 111.497 233.615 113.117 233.615C114.738 233.615 116.034 232.312 116.034 230.683C116.034 229.054 114.738 227.751 113.117 227.751Z" fill="#29B8CE" fill-opacity="0.6"/>
<path d="M113.117 260.33C111.497 260.33 110.2 261.633 110.2 263.262C110.2 264.891 111.497 266.195 113.117 266.195C114.738 266.195 116.034 264.891 116.034 263.262C116.034 261.633 114.738 260.33 113.117 260.33Z" fill="#29B8CE" fill-opacity="0.6"/>
<path d="M113.117 292.909C111.497 292.909 110.2 294.213 110.2 295.842C110.2 297.471 111.497 298.774 113.117 298.774C114.738 298.774 116.034 297.471 116.034 295.842C116.034 294.213 114.738 292.909 113.117 292.909Z" fill="#29B8CE" fill-opacity="0.6"/>
<path d="M113.117 325.326C111.497 325.326 110.2 326.629 110.2 328.258C110.2 329.887 111.497 331.19 113.117 331.19C114.738 331.19 116.034 329.887 116.034 328.258C116.034 326.629 114.738 325.326 113.117 325.326Z" fill="#29B8CE" fill-opacity="0.6"/>
<path d="M113.117 357.905C111.497 357.905 110.2 359.208 110.2 360.837C110.2 362.466 111.497 363.769 113.117 363.769C114.738 363.769 116.034 362.466 116.034 360.837C116.034 359.208 114.738 357.905 113.117 357.905Z" fill="#29B8CE" fill-opacity="0.6"/>
<path d="M113.117 390.321C111.497 390.321 110.2 391.624 110.2 393.253C110.2 394.882 111.497 396.185 113.117 396.185C114.738 396.185 116.034 394.882 116.034 393.253C116.034 391.624 114.738 390.321 113.117 390.321Z" fill="#29B8CE" fill-opacity="0.6"/>
<path d="M85.5672 0.185509C83.9466 0.185509 82.6501 1.48867 82.6501 3.11764C82.6501 4.7466 83.9466 6.04977 85.5672 6.04977C87.1878 6.04977 88.4843 4.7466 88.4843 3.11764C88.4843 1.48867 87.1878 0.185509 85.5672 0.185509Z" fill="#29B8CE" fill-opacity="0.6"/>
<path d="M85.5672 32.7647C83.9466 32.7647 82.6501 34.0679 82.6501 35.6968C82.6501 37.3258 83.9466 38.629 85.5672 38.629C87.1878 38.629 88.4843 37.3258 88.4843 35.6968C88.4843 34.0679 87.1878 32.7647 85.5672 32.7647Z" fill="#29B8CE" fill-opacity="0.6"/>
<path d="M85.5672 65.181C83.9466 65.181 82.6501 66.4841 82.6501 68.1131C82.6501 69.7421 83.9466 71.0452 85.5672 71.0452C87.1878 71.0452 88.4843 69.7421 88.4843 68.1131C88.4843 66.647 87.1878 65.181 85.5672 65.181Z" fill="#29B8CE" fill-opacity="0.6"/>
<path d="M85.5672 97.7602C83.9466 97.7602 82.6501 99.0634 82.6501 100.692C82.6501 102.321 83.9466 103.624 85.5672 103.624C87.1878 103.624 88.4843 102.321 88.4843 100.692C88.4843 99.0634 87.1878 97.7602 85.5672 97.7602Z" fill="#29B8CE" fill-opacity="0.6"/>
<path d="M85.5672 130.339C83.9466 130.339 82.6501 131.643 82.6501 133.272C82.6501 134.9 83.9466 136.204 85.5672 136.204C87.1878 136.204 88.4843 134.9 88.4843 133.272C88.4843 131.643 87.1878 130.339 85.5672 130.339Z" fill="#29B8CE" fill-opacity="0.6"/>
<path d="M85.5672 162.756C83.9466 162.756 82.6501 164.059 82.6501 165.688C82.6501 167.317 83.9466 168.62 85.5672 168.62C87.1878 168.62 88.4843 167.317 88.4843 165.688C88.4843 164.059 87.1878 162.756 85.5672 162.756Z" fill="#29B8CE" fill-opacity="0.6"/>
<path d="M85.5672 195.335C83.9466 195.335 82.6501 196.638 82.6501 198.267C82.6501 199.896 83.9466 201.199 85.5672 201.199C87.1878 201.199 88.4843 199.896 88.4843 198.267C88.4843 196.638 87.1878 195.335 85.5672 195.335Z" fill="#29B8CE" fill-opacity="0.6"/>
<path d="M85.5672 227.751C83.9466 227.751 82.6501 229.054 82.6501 230.683C82.6501 232.312 83.9466 233.615 85.5672 233.615C87.1878 233.615 88.4843 232.312 88.4843 230.683C88.4843 229.054 87.1878 227.751 85.5672 227.751Z" fill="#29B8CE" fill-opacity="0.6"/>
<path d="M85.5672 260.33C83.9466 260.33 82.6501 261.633 82.6501 263.262C82.6501 264.891 83.9466 266.195 85.5672 266.195C87.1878 266.195 88.4843 264.891 88.4843 263.262C88.4843 261.633 87.1878 260.33 85.5672 260.33Z" fill="#29B8CE" fill-opacity="0.6"/>
<path d="M85.5672 292.909C83.9466 292.909 82.6501 294.213 82.6501 295.842C82.6501 297.471 83.9466 298.774 85.5672 298.774C87.1878 298.774 88.4843 297.471 88.4843 295.842C88.4843 294.213 87.1878 292.909 85.5672 292.909Z" fill="#29B8CE" fill-opacity="0.6"/>
<path d="M85.5672 325.326C83.9466 325.326 82.6501 326.629 82.6501 328.258C82.6501 329.887 83.9466 331.19 85.5672 331.19C87.1878 331.19 88.4843 329.887 88.4843 328.258C88.4843 326.629 87.1878 325.326 85.5672 325.326Z" fill="#29B8CE" fill-opacity="0.6"/>
<path d="M85.5672 357.905C83.9466 357.905 82.6501 359.208 82.6501 360.837C82.6501 362.466 83.9466 363.769 85.5672 363.769C87.1878 363.769 88.4843 362.466 88.4843 360.837C88.4843 359.208 87.1878 357.905 85.5672 357.905Z" fill="#29B8CE" fill-opacity="0.6"/>
<path d="M85.5672 390.321C83.9466 390.321 82.6501 391.624 82.6501 393.253C82.6501 394.882 83.9466 396.185 85.5672 396.185C87.1878 396.185 88.4843 394.882 88.4843 393.253C88.4843 391.624 87.1878 390.321 85.5672 390.321Z" fill="#29B8CE" fill-opacity="0.6"/>
<path d="M58.0172 0.185509C56.3966 0.185509 55.1001 1.48867 55.1001 3.11764C55.1001 4.7466 56.3966 6.04977 58.0172 6.04977C59.6378 6.04977 60.9342 4.7466 60.9342 3.11764C60.9342 1.48867 59.6378 0.185509 58.0172 0.185509Z" fill="#29B8CE" fill-opacity="0.6"/>
<path d="M58.0172 32.7647C56.3966 32.7647 55.1001 34.0679 55.1001 35.6968C55.1001 37.3258 56.3966 38.629 58.0172 38.629C59.6378 38.629 60.9342 37.3258 60.9342 35.6968C60.9342 34.0679 59.6378 32.7647 58.0172 32.7647Z" fill="#29B8CE" fill-opacity="0.6"/>
<path d="M58.0172 65.181C56.3966 65.181 55.1001 66.4841 55.1001 68.1131C55.1001 69.7421 56.3966 71.0452 58.0172 71.0452C59.6378 71.0452 60.9342 69.7421 60.9342 68.1131C60.9342 66.647 59.6378 65.181 58.0172 65.181Z" fill="#29B8CE" fill-opacity="0.6"/>
<path d="M58.0172 97.7602C56.3966 97.7602 55.1001 99.0634 55.1001 100.692C55.1001 102.321 56.3966 103.624 58.0172 103.624C59.6378 103.624 60.9342 102.321 60.9342 100.692C60.9342 99.0634 59.6378 97.7602 58.0172 97.7602Z" fill="#29B8CE" fill-opacity="0.6"/>
<path d="M58.0172 130.339C56.3966 130.339 55.1001 131.643 55.1001 133.272C55.1001 134.9 56.3966 136.204 58.0172 136.204C59.6378 136.204 60.9342 134.9 60.9342 133.272C60.9342 131.643 59.6378 130.339 58.0172 130.339Z" fill="#29B8CE" fill-opacity="0.6"/>
<path d="M58.0172 162.756C56.3966 162.756 55.1001 164.059 55.1001 165.688C55.1001 167.317 56.3966 168.62 58.0172 168.62C59.6378 168.62 60.9342 167.317 60.9342 165.688C60.9342 164.059 59.6378 162.756 58.0172 162.756Z" fill="#29B8CE" fill-opacity="0.6"/>
<path d="M58.0172 195.335C56.3966 195.335 55.1001 196.638 55.1001 198.267C55.1001 199.896 56.3966 201.199 58.0172 201.199C59.6378 201.199 60.9342 199.896 60.9342 198.267C60.9342 196.638 59.6378 195.335 58.0172 195.335Z" fill="#29B8CE" fill-opacity="0.6"/>
<path d="M58.0172 227.751C56.3966 227.751 55.1001 229.054 55.1001 230.683C55.1001 232.312 56.3966 233.615 58.0172 233.615C59.6378 233.615 60.9342 232.312 60.9342 230.683C60.9342 229.054 59.6378 227.751 58.0172 227.751Z" fill="#29B8CE" fill-opacity="0.6"/>
<path d="M58.0172 260.33C56.3966 260.33 55.1001 261.633 55.1001 263.262C55.1001 264.891 56.3966 266.195 58.0172 266.195C59.6378 266.195 60.9342 264.891 60.9342 263.262C60.9342 261.633 59.6378 260.33 58.0172 260.33Z" fill="#29B8CE" fill-opacity="0.6"/>
<path d="M58.0172 292.909C56.3966 292.909 55.1001 294.213 55.1001 295.842C55.1001 297.471 56.3966 298.774 58.0172 298.774C59.6378 298.774 60.9342 297.471 60.9342 295.842C60.9342 294.213 59.6378 292.909 58.0172 292.909Z" fill="#29B8CE" fill-opacity="0.6"/>
<path d="M58.0172 325.326C56.3966 325.326 55.1001 326.629 55.1001 328.258C55.1001 329.887 56.3966 331.19 58.0172 331.19C59.6378 331.19 60.9342 329.887 60.9342 328.258C60.9342 326.629 59.6378 325.326 58.0172 325.326Z" fill="#29B8CE" fill-opacity="0.6"/>
<path d="M58.0172 357.905C56.3966 357.905 55.1001 359.208 55.1001 360.837C55.1001 362.466 56.3966 363.769 58.0172 363.769C59.6378 363.769 60.9342 362.466 60.9342 360.837C60.9342 359.208 59.6378 357.905 58.0172 357.905Z" fill="#29B8CE" fill-opacity="0.6"/>
<path d="M58.0172 390.321C56.3966 390.321 55.1001 391.624 55.1001 393.253C55.1001 394.882 56.3966 396.185 58.0172 396.185C59.6378 396.185 60.9342 394.882 60.9342 393.253C60.9342 391.624 59.6378 390.321 58.0172 390.321Z" fill="#29B8CE" fill-opacity="0.6"/>
<path d="M30.4671 0.185509C28.8465 0.185509 27.5501 1.48867 27.5501 3.11764C27.5501 4.7466 28.8465 6.04977 30.4671 6.04977C32.0877 6.04977 33.3842 4.7466 33.3842 3.11764C33.3842 1.48867 32.0877 0.185509 30.4671 0.185509Z" fill="#29B8CE" fill-opacity="0.6"/>
<path d="M30.4671 32.7647C28.8465 32.7647 27.5501 34.0679 27.5501 35.6968C27.5501 37.3258 28.8465 38.629 30.4671 38.629C32.0877 38.629 33.3842 37.3258 33.3842 35.6968C33.3842 34.0679 32.0877 32.7647 30.4671 32.7647Z" fill="#29B8CE" fill-opacity="0.6"/>
<path d="M30.4671 65.181C28.8465 65.181 27.5501 66.4841 27.5501 68.1131C27.5501 69.7421 28.8465 71.0452 30.4671 71.0452C32.0877 71.0452 33.3842 69.7421 33.3842 68.1131C33.3842 66.647 32.0877 65.181 30.4671 65.181Z" fill="#29B8CE" fill-opacity="0.6"/>
<path d="M27.5501 100.692C27.5501 102.312 28.8561 103.624 30.4671 103.624C32.0782 103.624 33.3842 102.312 33.3842 100.692C33.3842 99.0729 32.0782 97.7602 30.4671 97.7602C28.8561 97.7602 27.5501 99.0729 27.5501 100.692Z" fill="#29B8CE" fill-opacity="0.6"/>
<path d="M27.5501 133.272C27.5501 134.891 28.8561 136.204 30.4671 136.204C32.0782 136.204 33.3842 134.891 33.3842 133.272C33.3842 131.652 32.0782 130.339 30.4671 130.339C28.8561 130.339 27.5501 131.652 27.5501 133.272Z" fill="#29B8CE" fill-opacity="0.6"/>
<path d="M27.5501 165.688C27.5501 167.307 28.8561 168.62 30.4671 168.62C32.0782 168.62 33.3842 167.307 33.3842 165.688C33.3842 164.068 32.0782 162.756 30.4671 162.756C28.8561 162.756 27.5501 164.068 27.5501 165.688Z" fill="#29B8CE" fill-opacity="0.6"/>
<path d="M30.4671 195.335C28.8465 195.335 27.5501 196.638 27.5501 198.267C27.5501 199.896 28.8465 201.199 30.4671 201.199C32.0877 201.199 33.3842 199.896 33.3842 198.267C33.3842 196.638 32.0877 195.335 30.4671 195.335Z" fill="#29B8CE" fill-opacity="0.6"/>
<path d="M30.4671 227.751C28.8465 227.751 27.5501 229.054 27.5501 230.683C27.5501 232.312 28.8465 233.615 30.4671 233.615C32.0877 233.615 33.3842 232.312 33.3842 230.683C33.3842 229.054 32.0877 227.751 30.4671 227.751Z" fill="#29B8CE" fill-opacity="0.6"/>
<path d="M30.4671 260.33C28.8465 260.33 27.5501 261.633 27.5501 263.262C27.5501 264.891 28.8465 266.195 30.4671 266.195C32.0877 266.195 33.3842 264.891 33.3842 263.262C33.3842 261.633 32.0877 260.33 30.4671 260.33Z" fill="#29B8CE" fill-opacity="0.6"/>
<path d="M30.4671 292.909C28.8465 292.909 27.5501 294.213 27.5501 295.842C27.5501 297.471 28.8465 298.774 30.4671 298.774C32.0877 298.774 33.3842 297.471 33.3842 295.842C33.3842 294.213 32.0877 292.909 30.4671 292.909Z" fill="#29B8CE" fill-opacity="0.6"/>
<path d="M30.4671 325.326C28.8465 325.326 27.5501 326.629 27.5501 328.258C27.5501 329.887 28.8465 331.19 30.4671 331.19C32.0877 331.19 33.3842 329.887 33.3842 328.258C33.3842 326.629 32.0877 325.326 30.4671 325.326Z" fill="#29B8CE" fill-opacity="0.6"/>
<path d="M30.4671 357.905C28.8465 357.905 27.5501 359.208 27.5501 360.837C27.5501 362.466 28.8465 363.769 30.4671 363.769C32.0877 363.769 33.3842 362.466 33.3842 360.837C33.3842 359.208 32.0877 357.905 30.4671 357.905Z" fill="#29B8CE" fill-opacity="0.6"/>
<path d="M30.4671 390.321C28.8465 390.321 27.5501 391.624 27.5501 393.253C27.5501 394.882 28.8465 396.185 30.4671 396.185C32.0877 396.185 33.3842 394.882 33.3842 393.253C33.3842 391.624 32.0877 390.321 30.4671 390.321Z" fill="#29B8CE" fill-opacity="0.6"/>
<path d="M2.91707 0.185509C1.29648 0.185509 0 1.48867 0 3.11764C0 4.7466 1.29648 6.04977 2.91707 6.04977C4.53767 6.04977 5.83414 4.7466 5.83414 3.11764C5.83414 1.48867 4.53767 0.185509 2.91707 0.185509Z" fill="#29B8CE" fill-opacity="0.6"/>
<path d="M2.91707 32.7647C1.29648 32.7647 0 34.0679 0 35.6968C0 37.3258 1.29648 38.629 2.91707 38.629C4.53767 38.629 5.83414 37.3258 5.83414 35.6968C5.83414 34.0679 4.53767 32.7647 2.91707 32.7647Z" fill="#29B8CE" fill-opacity="0.6"/>
<path d="M2.91707 65.181C1.29648 65.181 0 66.4841 0 68.1131C0 69.7421 1.29648 71.0452 2.91707 71.0452C4.53767 71.0452 5.83414 69.7421 5.83414 68.1131C5.83414 66.647 4.53767 65.181 2.91707 65.181Z" fill="#29B8CE" fill-opacity="0.6"/>
<path d="M2.91707 97.7602C1.29648 97.7602 0 99.0634 0 100.692C0 102.321 1.29648 103.624 2.91707 103.624C4.53767 103.624 5.83414 102.321 5.83414 100.692C5.83414 99.0634 4.53767 97.7602 2.91707 97.7602Z" fill="#29B8CE" fill-opacity="0.6"/>
<path d="M2.91707 130.339C1.29648 130.339 0 131.643 0 133.272C0 134.9 1.29648 136.204 2.91707 136.204C4.53767 136.204 5.83414 134.9 5.83414 133.272C5.83414 131.643 4.53767 130.339 2.91707 130.339Z" fill="#29B8CE" fill-opacity="0.6"/>
<path d="M2.91707 162.756C1.29648 162.756 0 164.059 0 165.688C0 167.317 1.29648 168.62 2.91707 168.62C4.53767 168.62 5.83414 167.317 5.83414 165.688C5.83414 164.059 4.53767 162.756 2.91707 162.756Z" fill="#29B8CE" fill-opacity="0.6"/>
<path d="M2.91707 195.335C1.29648 195.335 0 196.638 0 198.267C0 199.896 1.29648 201.199 2.91707 201.199C4.53767 201.199 5.83414 199.896 5.83414 198.267C5.83414 196.638 4.53767 195.335 2.91707 195.335Z" fill="#29B8CE" fill-opacity="0.6"/>
<path d="M2.91707 227.751C1.29648 227.751 0 229.054 0 230.683C0 232.312 1.29648 233.615 2.91707 233.615C4.53767 233.615 5.83414 232.312 5.83414 230.683C5.83414 229.054 4.53767 227.751 2.91707 227.751Z" fill="#29B8CE" fill-opacity="0.6"/>
<path d="M2.91707 260.33C1.29648 260.33 0 261.633 0 263.262C0 264.891 1.29648 266.195 2.91707 266.195C4.53767 266.195 5.83414 264.891 5.83414 263.262C5.83414 261.633 4.53767 260.33 2.91707 260.33Z" fill="#29B8CE" fill-opacity="0.6"/>
<path d="M2.91707 292.909C1.29648 292.909 0 294.213 0 295.842C0 297.471 1.29648 298.774 2.91707 298.774C4.53767 298.774 5.83414 297.471 5.83414 295.842C5.83414 294.213 4.53767 292.909 2.91707 292.909Z" fill="#29B8CE" fill-opacity="0.6"/>
<path d="M2.91707 325.326C1.29648 325.326 0 326.629 0 328.258C0 329.887 1.29648 331.19 2.91707 331.19C4.53767 331.19 5.83414 329.887 5.83414 328.258C5.83414 326.629 4.53767 325.326 2.91707 325.326Z" fill="#29B8CE" fill-opacity="0.6"/>
<path d="M2.91707 357.905C1.29648 357.905 0 359.208 0 360.837C0 362.466 1.29648 363.769 2.91707 363.769C4.53767 363.769 5.83414 362.466 5.83414 360.837C5.83414 359.208 4.53767 357.905 2.91707 357.905Z" fill="#29B8CE" fill-opacity="0.6"/>
<path d="M2.91707 390.321C1.29648 390.321 0 391.624 0 393.253C0 394.882 1.29648 396.185 2.91707 396.185C4.53767 396.185 5.83414 394.882 5.83414 393.253C5.83414 391.624 4.53767 390.321 2.91707 390.321Z" fill="#29B8CE" fill-opacity="0.6"/>
</svg>
